<svg width="315" height="322" viewBox="0 0 315 322" fill="none" xmlns="http://www.w3.org/2000/svg">
<path d="M1.93572 124.683C5.43546 81.7214 7.18533 60.2405 15.3306 46.3428C38.653 6.54931 106.457 -2.91519 149.281 0.714214C206.612 5.57066 272.198 38.3848 301.068 101.742C327.289 159.287 315.199 224.424 275.688 267.032C203.26 345.143 53.8567 331.197 17.36 279.942C2.79507 259.487 1.74514 226.816 0.202019 178.823C-0.540666 155.719 0.905432 137.309 1.93456 124.682L1.93572 124.683Z" fill="#F4F7FA"/>
<path d="M103.409 13.6804L103.764 16.2173C104.946 16.2714 106.108 16.4232 107.239 16.6762L108.202 14.3095C108.464 13.6643 109.207 13.3573 109.86 13.6252L113.945 15.3008C114.599 15.5687 114.917 16.3116 114.656 16.9579L113.689 19.3545C114.678 19.9824 115.614 20.6931 116.485 21.4797L118.538 19.895C119.093 19.4672 119.897 19.573 120.335 20.1319L123.079 23.6279C123.519 24.188 123.425 24.9907 122.871 25.4196L120.812 27.0135C121.36 28.0393 121.821 29.1226 122.193 30.2531L124.807 29.9115C125.509 29.8195 126.163 30.3152 126.267 31.019L126.924 35.4281C127.029 36.1342 126.544 36.7828 125.841 36.8748L123.219 37.2175C123.187 38.4077 123.057 39.5784 122.825 40.7181L125.285 41.7393C125.948 42.0141 126.274 42.7743 126.013 43.4355L124.374 47.5824C124.112 48.2471 123.36 48.5611 122.694 48.2839L120.233 47.2581C119.614 48.2609 118.908 49.2062 118.125 50.0848L119.765 52.2054C120.209 52.7793 120.114 53.6004 119.553 54.0397L116.037 56.7859C115.474 57.2252 114.658 57.1148 114.215 56.5386L112.595 54.4318C111.56 54.9804 110.465 55.4369 109.322 55.8015L109.691 58.4304C109.791 59.1503 109.298 59.8092 108.589 59.9012L104.15 60.4808C103.44 60.574 102.785 60.0645 102.686 59.3446L102.328 56.7353C101.121 56.6835 99.9344 56.5283 98.7805 56.2695L97.8068 58.6799C97.5366 59.3492 96.78 59.6655 96.117 59.386L91.9774 57.6392C91.3167 57.3597 91.0002 56.5927 91.2717 55.9257L92.2454 53.5325C91.2347 52.8828 90.283 52.1456 89.4005 51.3303L87.3769 52.8966C86.8109 53.3347 86.0001 53.2243 85.5658 52.6505L82.855 49.0717C82.4218 48.5001 82.5292 47.6848 83.094 47.2489L85.0992 45.701C84.5528 44.6465 84.0989 43.5321 83.7386 42.3718L81.2321 42.6995C80.5287 42.7915 79.8842 42.2913 79.793 41.5829L79.2235 37.1623C79.1323 36.4573 79.6278 35.811 80.3301 35.719L82.8296 35.3924C82.8815 34.1872 83.034 33.005 83.2904 31.8562L80.9723 30.8902C80.3208 30.6188 80.0124 29.869 80.2827 29.2158L81.976 25.1402C82.2463 24.4893 82.9924 24.1811 83.6438 24.4513L85.9759 25.4196C86.6111 24.4272 87.3296 23.4911 88.1277 22.6251L86.5869 20.623C86.1583 20.0652 86.2635 19.2683 86.8202 18.8416L90.3026 16.1771C90.8593 15.7516 91.6574 15.8562 92.0871 16.4117L93.6372 18.4161C94.6651 17.8848 95.7509 17.4432 96.884 17.0936L96.5386 14.5763C96.4439 13.884 96.9302 13.248 97.6267 13.1572L101.978 12.5891C102.673 12.4982 103.316 12.9858 103.413 13.6781L103.409 13.6804ZM118.749 34.2298C117.491 25.5174 109.46 19.4097 100.803 20.5402C92.146 21.6706 86.0659 29.6217 87.2291 38.3456C88.3991 47.1236 96.4474 53.3508 105.199 52.2089C113.951 51.0658 120.015 42.9951 118.749 34.2298V34.2298Z" fill="#D8DEE8"/>
<path d="M170.126 12.305L170.675 16.2277C172.502 16.3105 174.299 16.5451 176.047 16.9361L177.536 13.2768C177.943 12.2786 179.09 11.8048 180.098 12.2188L186.415 14.8097C187.426 15.2249 187.919 16.3714 187.515 17.3731L186.018 21.0784C187.548 22.049 188.995 23.1472 190.341 24.3651L193.517 21.9144C194.373 21.2532 195.617 21.4176 196.294 22.2801L200.538 27.6851C201.218 28.5511 201.074 29.7919 200.216 30.4555L197.032 32.9211C197.88 34.5069 198.594 36.1825 199.169 37.9293L203.21 37.4015C204.295 37.26 205.306 38.0259 205.468 39.1138L206.484 45.9322C206.647 47.0247 205.896 48.0263 204.808 48.1678L200.755 48.6968C200.706 50.5368 200.505 52.348 200.145 54.1098L203.948 55.6888C204.974 56.1143 205.478 57.2884 205.073 58.3119L202.539 64.7232C202.134 65.7501 200.971 66.2366 199.943 65.8076L196.137 64.2218C195.181 65.772 194.089 67.2336 192.877 68.5918L195.413 71.8704C196.099 72.7582 195.952 74.0278 195.084 74.7063L189.647 78.9521C188.777 79.6318 187.515 79.4604 186.83 78.5703L184.324 75.3135C182.725 76.1622 181.03 76.8683 179.264 77.4318L179.835 81.4971C179.991 82.6103 179.228 83.6292 178.13 83.7718L171.267 84.6676C170.17 84.8114 169.155 84.0236 169.003 82.9104L168.449 78.8762C166.582 78.7969 164.748 78.5565 162.964 78.1563L161.459 81.8835C161.041 82.9185 159.871 83.4072 158.847 82.9748L152.446 80.2746C151.423 79.8434 150.935 78.6566 151.355 77.6239L152.861 73.9232C151.299 72.9192 149.827 71.7784 148.462 70.518L145.334 72.9399C144.46 73.6173 143.206 73.4459 142.534 72.5604L138.343 67.0278C137.674 66.1446 137.839 64.883 138.712 64.2091L141.812 61.8171C140.967 60.1853 140.266 58.4626 139.709 56.6697L135.833 57.1757C134.745 57.3183 133.748 56.5444 133.607 55.4496L132.727 48.614C132.586 47.5226 133.353 46.5244 134.437 46.383L138.302 45.8781C138.382 44.0151 138.618 42.1866 139.015 40.411L135.43 38.9172C134.421 38.4974 133.944 37.3382 134.365 36.3285L136.983 30.0265C137.401 29.0203 138.555 28.5442 139.561 28.9616L143.166 30.4578C144.148 28.9225 145.26 27.4758 146.493 26.1384L144.111 23.0426C143.448 22.1812 143.61 20.9484 144.472 20.2883L149.857 16.169C150.718 15.5112 151.952 15.6734 152.617 16.5324L155.013 19.6317C156.604 18.8106 158.282 18.1275 160.033 17.5858L159.498 13.6931C159.351 12.6224 160.105 11.6403 161.18 11.5L167.908 10.6214C168.983 10.4811 169.978 11.2344 170.128 12.305H170.126ZM193.844 44.0784C191.9 30.6073 179.483 21.1635 166.098 22.9115C152.714 24.6595 143.313 36.953 145.11 50.4425C146.919 64.0136 159.362 73.6437 172.893 71.8762C186.424 70.1086 195.8 57.63 193.844 44.0784V44.0784Z" fill="#D8DEE8"/>
<path d="M176.563 50.2895L205.988 293.807C206.429 297.458 203.902 300.731 200.361 301.08L77.7983 314.478C70.2906 314.942 66.1798 311.123 65.7155 307.241L34.823 48.3414C34.3622 44.4808 38.0456 40.9837 45.5856 40.9837L169.263 43.5769C172.843 43.6367 176.123 46.6566 176.561 50.2883L176.563 50.2895Z" fill="url(#paint0_linear_2_34)"/>
<path d="M182.079 49.8709L211.666 294.606C212.11 298.276 209.573 301.566 206.021 301.918L78.9579 314.514C74.9742 314.908 71.3232 312.039 70.8577 308.137L39.7897 47.8986C39.3265 44.0174 42.2522 40.8986 46.2798 40.9664L174.752 43.125C178.345 43.1848 181.638 46.2208 182.079 49.8709V49.8709Z" fill="url(#paint1_linear_2_34)"/>
<path d="M179.669 63.3696L207.092 290.288C207.507 293.716 205.131 296.784 201.806 297.106L82.3075 308.671C78.6045 309.03 75.211 306.352 74.7767 302.719L46.0661 62.3208C45.6341 58.7075 48.3508 55.7831 52.0919 55.8233L172.817 57.1032C176.178 57.1389 179.257 59.9587 179.67 63.3707L179.669 63.3696Z" fill="#D8DEE8"/>
<path d="M115.587 49.7018C115.744 51.0048 114.805 52.0478 113.489 52.0306C112.171 52.0145 110.974 50.9427 110.817 49.6374C110.66 48.3322 111.603 47.2891 112.92 47.3087C114.237 47.3282 115.43 48.3989 115.586 49.7018H115.587Z" fill="url(#paint2_linear_2_34)"/>
<g style="mix-blend-mode:soft-light">
<path d="M159.008 215.692C134.545 170.659 97.9986 157.179 86.9958 110.767C81.0485 85.6796 85.1004 61.6676 91.9254 41.7335L46.2798 40.9664C42.2522 40.8986 39.3265 44.0185 39.7896 47.8986L70.8565 308.136C71.322 312.039 74.973 314.908 78.9567 314.512L178.84 304.611C179.578 264.26 169.912 235.765 159.007 215.691L159.008 215.692Z" fill="white"/>
</g>
<path d="M68.8918 77.9723L68.2947 81.1819L80.5876 81.2107L187.266 81.4625C190.011 81.4694 192.534 83.728 192.911 86.5076L218.377 255.964C218.756 258.768 214.371 263.05 211.643 263.259L164.316 266.88V266.823L93.5217 272.23H93.5182L93.3473 272.302C90.3245 272.534 87.5513 270.35 87.1586 267.388C87.1586 267.387 87.1586 267.4 87.1586 267.399L63.3095 86.4754C62.9226 83.5395 65.8529 77.9631 68.8929 77.9723H68.8918Z" fill="url(#paint3_linear_2_34)"/>
<path d="M89.5703 263.862C89.9607 266.825 92.7328 269.04 95.7555 268.809L214.174 259.756C216.901 259.548 218.799 257.106 218.42 254.301L195.269 83.0427C194.894 80.2631 192.37 78.0045 189.628 77.9965L70.5412 77.6699C67.5023 77.6618 65.347 80.0343 65.7328 82.9691L89.5691 263.862H89.5703Z" fill="url(#paint4_linear_2_34)"/>
<path d="M87.9972 169.68C88.1912 171.148 89.568 172.242 91.0719 172.187L195.294 168.4C196.669 168.351 197.637 167.223 197.448 165.821L195.399 150.699C195.209 149.299 193.954 148.351 192.577 148.389L88.264 151.273C86.7578 151.315 85.6917 152.374 85.8846 153.84L87.996 169.679L87.9972 169.68Z" fill="white"/>
<path d="M92.034 200.405C92.228 201.874 93.606 203.13 95.1098 203.056L199.253 197.933C200.628 197.866 201.584 196.556 201.395 195.153L199.329 179.739C199.14 178.337 197.873 177.136 196.497 177.191L92.2904 181.376C90.7866 181.437 89.7228 182.791 89.9168 184.26L92.034 200.406V200.405Z" fill="white"/>
<path style="mix-blend-mode:multiply" opacity="0.1" d="M85.8777 153.779C86.1249 153.7 86.3905 153.656 86.6735 153.648L190.989 150.765C192.365 150.726 193.621 151.676 193.808 153.073L195.861 168.194C195.866 168.234 195.869 168.27 195.872 168.309C196.93 168.013 197.611 167.014 197.451 165.818L195.399 150.697C195.212 149.3 193.955 148.349 192.579 148.389L88.264 151.272C86.7844 151.316 85.7229 152.342 85.8777 153.779V153.779Z" fill="url(#paint5_linear_2_34)"/>
<path style="mix-blend-mode:multiply" opacity="0.1" d="M89.8937 183.92C90.1444 183.821 90.4146 183.761 90.7011 183.749L194.906 179.563C196.281 179.508 197.551 180.712 197.738 182.114L199.806 197.529C199.818 197.628 199.826 197.723 199.826 197.822C200.884 197.481 201.556 196.349 201.397 195.153L199.328 179.738C199.141 178.336 197.873 177.132 196.496 177.187L92.2916 181.373C90.8998 181.433 89.8891 182.589 89.8937 183.92V183.92Z" fill="url(#paint6_linear_2_34)"/>
<path d="M119.73 225.308C119.423 222.988 121.07 220.852 123.412 220.717L177.323 217.635C179.555 217.508 181.617 219.38 181.921 221.638L184.145 238.334C184.449 240.596 182.9 242.76 180.669 242.912L126.785 246.583C124.445 246.743 122.29 244.775 121.982 242.452L119.73 225.308V225.308Z" fill="url(#paint7_linear_2_34)"/>
<path d="M115.659 112.823C116.369 118.16 119.123 122.978 123.038 126.521C127.258 130.342 132.816 132.667 138.596 132.556C144.347 132.446 149.187 129.944 152.295 126.038C155.162 122.437 156.567 117.639 155.863 112.392C154.4 101.475 144.326 92.6498 133.271 92.6762C122.112 92.7027 114.184 101.721 115.66 112.824L115.659 112.823Z" fill="url(#paint8_linear_2_34)"/>
<path d="M126.41 106.757C127.048 111.539 131.481 115.37 136.294 115.313C141.087 115.255 144.444 111.36 143.809 106.613C143.174 101.867 138.786 98.0387 133.99 98.0605C129.175 98.0824 125.774 101.975 126.411 106.757H126.41Z" fill="white"/>
<path d="M123.038 126.521C127.258 130.342 132.816 132.667 138.596 132.556C144.346 132.446 149.187 129.944 152.295 126.038C148.738 121.103 142.87 117.821 136.639 117.901C130.374 117.983 125.324 121.439 123.038 126.521Z" fill="white"/>
<g style="mix-blend-mode:soft-light" opacity="0.4">
<path d="M65.7339 82.969L89.5703 263.862C89.9607 266.824 92.9095 269.026 95.9311 268.795L167.054 263.358C170.433 259.914 173.215 255.781 175.201 250.821C176.176 248.389 176.889 245.764 177.364 243.004C178.684 235.366 178.173 226.683 176.247 218.161C174.767 211.6 172.445 205.123 169.473 199.279C167.096 194.606 164.301 190.334 161.179 186.744C158.931 184.16 156.5 181.649 153.936 179.187C150.844 176.216 147.557 173.315 144.167 170.441C136.268 163.74 127.81 157.189 119.979 150.27C101.91 134.311 87.2498 116.478 90.7773 91.0329C90.8905 90.2313 91.9913 84.0937 93.3981 77.7319L70.7179 77.6699C67.6802 77.6618 65.347 80.0343 65.7339 82.9679V82.969Z" fill="white"/>
</g>
<defs>
<linearGradient id="paint0_linear_2_34" x1="118.888" y1="171.452" x2="70.5924" y2="176.744" gradientUnits="userSpaceOnUse">
<stop stop-color="#444B8C"/>
<stop offset="1" stop-color="#26264F"/>
</linearGradient>
<linearGradient id="paint1_linear_2_34" x1="161.447" y1="50.2297" x2="42.9683" y2="455.344" gradientUnits="userSpaceOnUse">
<stop stop-color="#444B8C"/>
<stop offset="1" stop-color="#26264F"/>
</linearGradient>
<linearGradient id="paint2_linear_2_34" x1="116.692" y1="40.258" x2="-22.602" y2="419.162" gradientUnits="userSpaceOnUse">
<stop stop-color="#FFC444"/>
<stop offset="1" stop-color="#F36F56"/>
</linearGradient>
<linearGradient id="paint3_linear_2_34" x1="218.4" y1="175.146" x2="63.2737" y2="175.146" gradientUnits="userSpaceOnUse">
<stop stop-color="#311944"/>
<stop offset="1" stop-color="#893976"/>
</linearGradient>
<linearGradient id="paint4_linear_2_34" x1="124.088" y1="478.923" x2="142.425" y2="159.913" gradientUnits="userSpaceOnUse">
<stop stop-color="#F36F56"/>
<stop offset="1" stop-color="#FFC444"/>
</linearGradient>
<linearGradient id="paint5_linear_2_34" x1="197.474" y1="158.349" x2="85.8627" y2="158.349" gradientUnits="userSpaceOnUse">
<stop stop-color="#F36F56"/>
<stop offset="1" stop-color="#FFC444"/>
</linearGradient>
<linearGradient id="paint6_linear_2_34" x1="201.42" y1="187.504" x2="89.8937" y2="187.504" gradientUnits="userSpaceOnUse">
<stop stop-color="#F36F56"/>
<stop offset="1" stop-color="#FFC444"/>
</linearGradient>
<linearGradient id="paint7_linear_2_34" x1="146.602" y1="198.268" x2="171.321" y2="355.712" gradientUnits="userSpaceOnUse">
<stop stop-color="#F36F56"/>
<stop offset="1" stop-color="#FFC444"/>
</linearGradient>
<linearGradient id="paint8_linear_2_34" x1="138.402" y1="34.3758" x2="133.123" y2="192.236" gradientUnits="userSpaceOnUse">
<stop stop-color="#F36F56"/>
<stop offset="1" stop-color="#FFC444"/>
</linearGradient>
</defs>
</svg>
