<svg width="265" height="275" viewBox="0 0 265 275" fill="none" xmlns="http://www.w3.org/2000/svg">
<path d="M-6.55651e-06 159.813C-6.55651e-06 231.811 58.8604 246 130.934 246C203.007 246 261 231.811 261 159.813C261 87.8161 235.957 0 163.884 0C91.8106 0 -6.55651e-06 87.8161 -6.55651e-06 159.813Z" fill="#F4F7FA"/>
<g clip-path="url(#clip0_8_1498)">
<path d="M146 275C211.722 275 265 271.899 265 268.074C265 264.248 211.722 261.147 146 261.147C80.2781 261.147 27 264.248 27 268.074C27 271.899 80.2781 275 146 275Z" fill="#F5F5F5"/>
<path d="M86.1655 265.302L155.581 259.257C160.276 258.847 163.78 254.686 163.369 250.005L148.897 84.9237C148.486 80.2429 144.312 76.7491 139.617 77.1591L70.2019 83.2043C65.5067 83.6143 62.0022 87.775 62.4134 92.4558L76.8795 257.531C77.2907 262.212 81.4642 265.706 86.1594 265.296L86.1655 265.302Z" fill="#407BFF"/>
<path d="M67.6241 141.203C68.9621 141.087 69.9564 139.9 69.8398 138.572L67.931 116.771C67.8144 115.437 66.6237 114.446 65.2919 114.562C63.9539 114.679 62.9596 115.866 63.0762 117.194L64.985 138.994C65.1016 140.328 66.2923 141.319 67.6241 141.203V141.203Z" fill="#407BFF"/>
<path d="M152.402 124.003L153.252 123.929C154.248 123.842 154.985 122.967 154.897 121.974L153.73 108.673C153.643 107.68 152.765 106.946 151.769 107.033L150.919 107.107C149.923 107.194 149.186 108.069 149.273 109.062L150.44 122.362C150.527 123.355 151.406 124.09 152.402 124.003Z" fill="#263238"/>
<path d="M155.209 146.273L154.353 146.347C153.356 146.434 152.479 145.7 152.392 144.706L151.224 131.4C151.137 130.407 151.873 129.532 152.87 129.445L153.726 129.37C154.722 129.283 155.6 130.017 155.687 131.011L156.855 144.317C156.942 145.311 156.206 146.186 155.209 146.273Z" fill="#263238"/>
<path d="M87.6201 265.173L157.035 259.128C161.73 258.718 165.235 254.558 164.824 249.877L150.358 84.8013C149.946 80.1205 145.773 76.6268 141.078 77.0367L71.6626 83.082C66.9674 83.4919 63.4629 87.6526 63.8741 92.3334L78.3402 257.409C78.7514 262.09 82.9249 265.583 87.6201 265.173V265.173Z" fill="#263238"/>
<path opacity="0.4" d="M80.7891 254.888L161.976 247.815C162.86 247.735 163.51 246.964 163.437 246.083L149.676 89.0721C149.597 88.191 148.823 87.5425 147.939 87.6159L66.7465 94.6891C65.8627 94.7686 65.2121 95.5396 65.2857 96.4207L79.046 253.432C79.1258 254.313 79.8991 254.961 80.7829 254.888H80.7891Z" fill="#407BFF"/>
<path opacity="0.3" d="M137.217 88.5521L127.017 250.856L110.047 252.336L120.253 90.0267L137.217 88.5521Z" fill="#407BFF"/>
<path opacity="0.2" d="M115.387 83.346L98.0532 84.8548C97.6514 84.8898 97.3541 85.2429 97.3892 85.6435L97.4505 86.3445C97.4856 86.7451 97.8398 87.0415 98.2417 87.0065L115.576 85.4977C115.977 85.4627 116.275 85.1096 116.24 84.709L116.178 84.008C116.143 83.6074 115.789 83.311 115.387 83.346Z" fill="white"/>
<path d="M195.149 103.457C188.668 103.371 183.199 107.765 181.659 113.724H109.022C104.02 113.724 99.9688 117.769 99.9688 122.749V154.114C99.9688 159.1 104.02 163.139 109.022 163.139H126.741C128.741 163.139 130.662 163.934 132.074 165.341L143.52 176.753C146.466 179.69 151.241 179.69 154.194 176.753L165.64 165.341C167.058 163.928 168.973 163.139 170.973 163.139H188.692C193.695 163.139 197.745 159.1 197.745 154.114V130.575C204.134 129.266 208.903 123.545 208.707 116.741C208.492 109.453 202.465 103.549 195.155 103.451L195.149 103.457Z" fill="url(#paint0_linear_8_1498)"/>
<path d="M194.965 129.486C201.795 129.486 207.332 123.966 207.332 117.157C207.332 110.348 201.795 104.828 194.965 104.828C188.135 104.828 182.598 110.348 182.598 117.157C182.598 123.966 188.135 129.486 194.965 129.486Z" fill="white"/>
<path d="M112.311 143.228C112.815 143.54 113.882 143.889 114.686 143.889C115.49 143.889 115.877 143.608 115.877 143.155C115.877 142.702 115.595 142.47 114.57 142.127C112.716 141.521 112.023 140.518 112.029 139.472C112.029 137.801 113.441 136.553 115.65 136.553C116.693 136.553 117.614 136.798 118.16 137.073L117.675 138.976C117.277 138.768 116.497 138.474 115.748 138.474C115.073 138.474 114.686 138.743 114.686 139.19C114.686 139.637 115.042 139.839 116.129 140.218C117.817 140.793 118.529 141.656 118.541 142.953C118.541 144.611 117.246 145.835 114.693 145.835C113.533 145.835 112.489 145.572 111.808 145.211L112.311 143.241V143.228Z" fill="white"/>
<path d="M128.612 142.788C128.612 143.944 128.649 144.899 128.686 145.633H126.286L126.157 144.379H126.102C125.752 144.929 124.924 145.835 123.328 145.835C121.518 145.835 120.198 144.709 120.198 141.974V136.749H122.972V141.521C122.972 142.818 123.389 143.602 124.365 143.602C125.12 143.602 125.562 143.082 125.74 142.629C125.808 142.47 125.838 142.262 125.838 142.041V136.749H128.612V142.782V142.788Z" fill="white"/>
<path d="M130.761 145.633C130.797 145.046 130.834 143.987 130.834 142.978V132.747H133.602V137.807H133.639C134.167 137.042 135.094 136.547 136.327 136.547C138.469 136.547 140.022 138.309 140.004 141.032C140.004 144.232 137.972 145.829 135.928 145.829C134.885 145.829 133.885 145.443 133.265 144.391H133.228L133.111 145.627H130.761V145.633ZM133.602 141.864C133.602 142.041 133.621 142.207 133.651 142.347C133.835 143.082 134.474 143.663 135.284 143.663C136.462 143.663 137.193 142.751 137.193 141.154C137.193 139.771 136.573 138.682 135.29 138.682C134.529 138.682 133.842 139.239 133.664 140.047C133.627 140.206 133.608 140.377 133.608 140.555V141.864H133.602Z" fill="white"/>
<path d="M141.71 143.228C142.213 143.54 143.281 143.889 144.085 143.889C144.889 143.889 145.276 143.608 145.276 143.155C145.276 142.702 144.993 142.47 143.968 142.127C142.115 141.521 141.421 140.518 141.428 139.472C141.428 137.801 142.839 136.553 145.049 136.553C146.092 136.553 147.013 136.798 147.559 137.073L147.074 138.976C146.675 138.768 145.896 138.474 145.147 138.474C144.472 138.474 144.085 138.743 144.085 139.19C144.085 139.637 144.441 139.839 145.527 140.218C147.215 140.793 147.927 141.656 147.939 142.953C147.939 144.611 146.644 145.835 144.091 145.835C142.931 145.835 141.888 145.572 141.207 145.211L141.71 143.241V143.228Z" fill="white"/>
<path d="M156.311 145.407C155.814 145.639 154.881 145.823 153.831 145.823C150.953 145.823 149.118 144.067 149.118 141.277C149.118 138.682 150.898 136.559 154.212 136.559C154.942 136.559 155.746 136.694 156.323 136.908L155.894 138.958C155.562 138.811 155.071 138.676 154.341 138.676C152.874 138.676 151.935 139.71 151.947 141.166C151.947 142.8 153.046 143.663 154.384 143.663C155.047 143.663 155.556 143.547 155.98 143.375L156.305 145.413L156.311 145.407Z" fill="white"/>
<path d="M157.833 139.68C157.833 138.376 157.809 137.514 157.759 136.749H160.141L160.239 138.395H160.307C160.767 137.097 161.847 136.553 162.712 136.553C162.97 136.553 163.099 136.559 163.302 136.602V139.196C163.087 139.153 162.866 139.117 162.553 139.117C161.534 139.117 160.84 139.655 160.656 140.518C160.62 140.695 160.607 140.909 160.607 141.13V145.621H157.833V139.667V139.68Z" fill="white"/>
<path d="M167.567 134.283C167.567 135.054 167.003 135.66 166.076 135.66C165.149 135.66 164.633 135.048 164.633 134.283C164.633 133.494 165.21 132.9 166.1 132.9C166.99 132.9 167.555 133.494 167.567 134.283V134.283ZM164.713 145.633V136.749H167.487V145.633H164.713Z" fill="white"/>
<path d="M169.629 145.633C169.666 145.046 169.703 143.987 169.703 142.978V132.747H172.471V137.807H172.508C173.036 137.042 173.962 136.547 175.196 136.547C177.338 136.547 178.891 138.309 178.872 141.032C178.872 144.232 176.841 145.829 174.797 145.829C173.754 145.829 172.753 145.443 172.133 144.391H172.097L171.98 145.627H169.629V145.633ZM172.471 141.864C172.471 142.041 172.489 142.207 172.52 142.347C172.704 143.082 173.343 143.663 174.153 143.663C175.331 143.663 176.061 142.751 176.061 141.154C176.061 139.771 175.442 138.682 174.159 138.682C173.398 138.682 172.71 139.239 172.532 140.047C172.496 140.206 172.477 140.377 172.477 140.555V141.864H172.471Z" fill="white"/>
<path d="M182.794 142.078C182.874 143.222 184.016 143.767 185.305 143.767C186.244 143.767 187.011 143.644 187.753 143.387L188.128 145.254C187.207 145.627 186.096 145.817 184.899 145.817C181.88 145.817 180.149 144.067 180.149 141.295C180.149 139.037 181.561 136.541 184.642 136.541C187.526 136.541 188.619 138.78 188.619 140.977C188.619 141.46 188.57 141.864 188.521 142.072H182.794V142.078ZM186.047 140.187C186.047 139.52 185.753 138.389 184.494 138.389C183.322 138.389 182.85 139.453 182.776 140.187H186.047Z" fill="white"/>
<path d="M200.274 121.024L198.985 119.592V116.055C198.985 114.146 197.647 112.562 195.861 112.152V111.656C195.861 111.216 195.566 110.812 195.131 110.732C194.56 110.628 194.069 111.063 194.069 111.613V112.146C192.283 112.556 190.945 114.146 190.945 116.049V119.586L189.656 121.018C189.466 121.232 189.613 121.574 189.908 121.574H200.016C200.305 121.574 200.458 121.232 200.268 121.018L200.274 121.024Z" fill="#232323"/>
<path d="M196.303 122.248V122.272C196.303 122.792 196.008 123.288 195.523 123.484C194.56 123.875 193.633 123.178 193.633 122.266V122.248H196.303V122.248Z" fill="#232323"/>
</g>
<defs>
<linearGradient id="paint0_linear_8_1498" x1="154.335" y1="97.6811" x2="154.335" y2="147.934" gradientUnits="userSpaceOnUse">
<stop stop-color="#CFC72F"/>
<stop offset="1" stop-color="#D69F25"/>
</linearGradient>
<clipPath id="clip0_8_1498">
<rect width="238" height="198" fill="white" transform="translate(27 77)"/>
</clipPath>
</defs>
</svg>
