<svg width="283" height="275" viewBox="0 0 283 275" fill="none" xmlns="http://www.w3.org/2000/svg">
<path d="M261 159.813C261 231.811 202.14 246 130.066 246C57.9933 246 0 231.811 0 159.813C0 87.8161 25.0431 0 97.1163 0C169.189 0 261 87.8161 261 159.813Z" fill="#F4F7FA"/>
<g clip-path="url(#clip0_8_1711)">
<path d="M255.04 90.1203C255.692 89.2559 256.585 89.1288 257.566 88.9698C257.724 88.9444 257.693 88.7219 257.566 88.6775C256.483 88.3151 255.382 89.1288 254.844 89.9996C254.761 90.1267 254.958 90.2284 255.04 90.114V90.1203Z" fill="#303030"/>
<path d="M254.856 90.1457C257.864 89.3639 260.738 90.7559 261.466 93.9849C262.119 96.877 261.093 100.265 257.851 100.748C257.648 100.78 257.705 101.091 257.895 101.091C261.447 101.174 262.562 96.6864 261.884 93.8642C261.156 90.8386 257.807 88.2642 254.755 89.9042C254.622 89.9741 254.717 90.1775 254.856 90.1394V90.1457Z" fill="#303030"/>
<path d="M251.114 90.6097C251.114 90.6097 251.114 88.8236 252.881 88.4486C254.647 88.0736 255.299 89.8597 255.299 89.8597C255.299 89.8597 257.718 89.205 259.947 93.3366C262.176 97.4682 259.668 101.504 257.623 102.35C255.578 103.195 253.166 101.695 253.166 101.695L251.121 90.6161L251.114 90.6097Z" fill="#303030"/>
<path d="M251.032 111.096C257.496 113.022 257.041 101.104 255.242 97.9513C255.135 97.7606 254.787 97.8877 254.875 98.1102C256.376 102 257.465 110.975 251.07 110.861C250.931 110.861 250.912 111.058 251.038 111.096H251.032Z" fill="#303030"/>
<path d="M273.313 176.782C273.313 176.782 271.73 178.015 269.78 179.687C269.78 179.687 270.514 180.628 271.629 182.865C272.35 184.308 273.49 183.495 275.415 182.992C276.554 182.694 277.814 181.53 277.517 180.736C277.181 179.833 275.263 179.045 273.313 176.789V176.782Z" fill="url(#paint0_linear_8_1711)"/>
<path d="M235.805 253.719C236.267 255.67 237.052 257.151 236.425 258.81C235.754 260.584 230.024 261.213 229.98 262.256C229.923 263.584 235.463 262.637 237.723 262.637C239.983 262.637 240.23 262.955 240.566 262.306C241.06 261.353 240.636 260.139 239.705 257.698C239.312 256.668 238.996 255.226 238.945 253.115L235.811 253.719H235.805Z" fill="url(#paint1_linear_8_1711)"/>
<path d="M240.566 262.306C241.06 261.353 240.636 260.139 239.705 257.698C239.325 256.7 239.021 255.327 238.951 253.331L236.071 254.539L236.121 254.895C236.362 255.715 236.59 256.465 236.64 257.202C237.014 257.221 237.793 257.342 238.584 257.012C238.584 257.012 238.717 257.781 239.053 258.575C239.395 259.395 240.408 260.387 240.015 261.556C239.749 262.351 237.204 261.83 235.982 262.02C235.589 262.084 235.482 262.383 235.513 262.764C236.362 262.694 237.147 262.637 237.717 262.637C239.983 262.637 240.224 262.955 240.56 262.306H240.566Z" fill="#D37A85"/>
<path d="M241.129 262.376H235.399C235.165 262.376 234.981 262.567 234.988 262.802C234.988 263.037 235.19 263.228 235.425 263.228H241.155C241.389 263.228 241.573 263.037 241.566 262.802C241.566 262.567 241.364 262.376 241.129 262.376Z" fill="#363344"/>
<path d="M229.321 262.523C229.277 260.927 232.594 260.571 234.861 259.395C235.317 259.325 236.906 260.603 236.976 263.228H230.467C229.264 263.228 229.315 262.516 229.315 262.516L229.321 262.523Z" fill="#363344"/>
<path d="M246.036 253.401C246.182 255.391 246.727 256.98 245.84 258.505C244.89 260.139 239.287 261.213 239.243 262.256C239.186 263.584 244.726 262.637 246.986 262.637C249.246 262.637 249.493 262.955 249.829 262.306C250.323 261.353 249.804 260.482 249.265 257.933C249.038 256.859 248.955 255.391 249.24 253.306L246.036 253.401Z" fill="url(#paint2_linear_8_1711)"/>
<path d="M249.835 262.306C250.329 261.353 249.81 260.482 249.272 257.933C249.088 257.069 249 255.95 249.12 254.463L246.169 254.622C246.239 255.156 246.302 255.658 246.328 256.147C246.72 256.268 247.493 256.459 248.335 256.414C248.335 256.414 248.347 257.832 248.594 259.186C248.841 260.539 249.183 261.811 247.417 261.957C245.65 262.097 243.884 262.027 243.884 262.027L244.257 262.815C245.302 262.732 246.296 262.643 246.986 262.643C249.253 262.643 249.493 262.961 249.829 262.313L249.835 262.306Z" fill="#D37A85"/>
<path d="M226.928 105.21C227.707 107.079 228.517 108.7 228.156 110.797C227.896 112.304 226.858 113.454 226.738 115.05C226.611 116.658 227.118 118.139 228.441 119.073C228.637 119.213 228.84 118.914 228.688 118.749C225.775 115.692 228.618 113.226 228.821 109.984C228.928 108.293 228.017 106.494 227.168 105.102C227.092 104.981 226.871 105.064 226.928 105.204V105.21Z" fill="#303030"/>
<path d="M228.441 107.982C228.441 107.982 224.446 105.35 225.003 99.3433C225.56 93.3366 228.815 90.5144 233.177 88.544C237.546 86.5735 241.212 86.8786 242.795 88.474C242.795 88.474 246.606 85.9633 250.88 90.0886C252.982 92.1162 255.337 95.9173 255.844 99.4895C256.528 104.327 255.622 108.96 252.134 110.086C252.134 110.086 251.925 116.493 243.491 117.739C240.18 118.228 228.441 107.975 228.441 107.975V107.982Z" fill="#212121"/>
<path d="M248.835 107.416L244.859 107.034L241.395 117.325C242.193 117.656 242.871 117.815 243.364 117.739C251.52 116.435 252.59 107.511 248.841 107.416H248.835Z" fill="#212121"/>
<path d="M227.928 127.038C224.534 128.932 223.021 133.267 219.912 138.479C216.797 143.685 215.385 144.632 213.499 147.098C211.612 149.558 210.01 159.271 216.189 157.898C223.597 156.251 227.934 148.808 228.498 147.194C229.061 145.585 227.934 127.044 227.934 127.044L227.928 127.038Z" fill="#FF2400"/>
<path d="M263.024 156.658C265.949 163.288 268.665 169.631 273.313 176.782L269.849 179.763C269.849 179.763 260.194 169.256 256.04 160.072L263.024 156.665V156.658Z" fill="url(#paint3_linear_8_1711)"/>
<path d="M222.844 169.822C222.844 169.822 219.494 185.923 222.755 209.409C225.573 229.699 234.906 256.077 234.906 256.077C234.906 256.077 237.913 256.478 240.737 254.584C240.737 254.584 240.281 239.1 239.179 233.036C238.078 226.972 236.305 222.618 235.653 219.211C234.994 215.804 239.021 192.832 239.021 192.832C239.021 192.832 239.388 210.261 240.237 221.054C240.984 230.519 243.668 247.382 244.618 254.768C244.618 254.768 247.6 256.948 251.032 254.768C251.032 254.768 252.463 241.127 252.647 233.741C252.83 226.355 251.963 222.185 251.241 216.312C250.519 210.439 256.42 192.54 257.326 184.016C258.104 176.681 255.553 168.43 256.047 169.619L222.844 169.809V169.822Z" fill="#E7DEE8"/>
<path d="M222.755 209.416C225.573 229.705 234.906 256.084 234.906 256.084C234.906 256.084 237.989 257.622 240.737 254.59C240.737 254.59 240.281 239.106 239.179 233.042C238.078 226.978 236.305 222.624 235.653 219.217C234.994 215.81 239.021 192.838 239.021 192.838L238.692 187.537L241.009 186.024L237.311 185.268L237.223 174.659L226.022 169.809L222.85 169.828C222.85 169.828 219.501 185.929 222.762 209.416H222.755Z" fill="#C5BBC7"/>
<path d="M251.918 105.992C251.918 105.992 244.96 106.062 240.427 102.903C235.76 99.6484 234.462 93.4764 234.462 93.4764C234.462 93.4764 229.847 94.1057 227.802 97.8432C224.484 103.907 229.568 110.079 229.568 110.079L248.062 111.147L248.702 107.854C250.348 107.473 251.247 106.78 251.925 105.998L251.918 105.992Z" fill="#212121"/>
<path d="M245.549 113.556C245.549 113.556 237.236 116.2 235.488 119.111C239.065 122.004 234.348 124.94 231.518 125.792C231.518 125.792 231.48 132.485 238.122 132.752C244.764 133.019 248.689 125.601 248.689 125.601C245.859 124.94 243.909 123.173 243.371 121.209C242.522 118.126 244.251 115.698 245.555 113.556H245.549Z" fill="url(#paint4_linear_8_1711)"/>
<path d="M235.558 123.561C236.697 125.582 240.553 130.991 247.632 127.228C248.322 126.281 248.683 125.601 248.683 125.601C245.853 124.94 243.903 123.173 243.364 121.209C242.516 118.126 244.245 115.698 245.549 113.556C245.549 113.556 237.236 116.2 235.488 119.111C237.451 120.701 236.913 122.302 235.558 123.567V123.561Z" fill="#D37A85"/>
<path d="M248.164 107.835C246.973 107.702 246.087 110.047 246.087 110.047C244.156 110.461 244.833 106.068 244.833 106.068C235.323 102.801 233.842 95.8855 233.842 95.8855C229.264 96.6673 228.587 101.86 228.587 101.86C225.75 115.418 232.576 121.018 234.83 121.362C237.039 121.692 242.117 119.722 245.536 114.033C247.429 114.484 249.183 113.372 249.905 111.687C250.595 110.073 250.241 107.988 248.164 107.848V107.835Z" fill="url(#paint5_linear_8_1711)"/>
<path d="M231.195 114.776C231.195 114.776 234.279 115.476 238.47 114.471C238.47 114.471 237.603 117.446 234.804 117.516C232.341 117.58 231.195 114.776 231.195 114.776Z" fill="#4B3C59"/>
<path d="M232.487 115.329C232.487 115.329 234.811 115.705 237.748 114.999C237.748 114.999 237.141 116.728 234.906 116.874C233.069 116.995 232.487 115.329 232.487 115.329Z" fill="#FFF4E9"/>
<path d="M234.006 108.452C234.443 107.13 234.26 105.592 233.405 104.301C234.006 104.835 234.405 105.541 234.633 106.291C234.849 107.034 234.937 107.861 234.722 108.624C234.336 110.06 233.272 111.153 231.974 111.948C232.449 112.634 233.177 113.27 234.082 113.613C232.468 113.423 231.55 112.685 230.549 111.668C232.126 110.975 233.532 109.997 234.006 108.452Z" fill="#D37A85"/>
<path d="M236.773 102.986C236.628 103.786 237.85 103.265 240.129 104.123C241.509 104.645 242.649 105.617 242.883 105.445C243.111 105.274 242.465 104.403 240.471 103.373C238.863 102.541 236.881 102.401 236.773 102.986V102.986Z" fill="#212121"/>
<path d="M232.443 102.801C232.525 103.545 231.417 103.138 229.967 103.634C228.929 103.99 228.188 104.638 227.972 104.511C227.757 104.384 228.175 103.577 229.473 102.922C230.67 102.312 232.386 102.337 232.443 102.801Z" fill="#212121"/>
<path d="M237.71 107.149C237.653 107.873 238.078 108.49 238.654 108.535C239.23 108.579 239.743 108.032 239.8 107.308C239.857 106.583 239.433 105.967 238.856 105.922C238.28 105.878 237.767 106.424 237.71 107.149Z" fill="#4B3C59"/>
<path d="M241.383 108.185C241.199 107.085 240.344 106.049 238.907 105.757C238.071 105.573 237.267 106.507 237.394 107.073C237.394 107.073 238.033 106.456 238.907 106.666C239.781 106.876 241.389 108.179 241.389 108.179L241.383 108.185Z" fill="#4B3C59"/>
<path d="M240.376 106.685C240.376 106.685 241.364 106.183 241.433 106.291C241.503 106.399 240.712 107.073 240.712 107.073L240.376 106.685V106.685Z" fill="#4B3C59"/>
<path d="M240.794 107.168C240.794 107.168 241.946 106.952 241.978 107.034C242.01 107.117 241.022 107.632 241.022 107.632L240.794 107.168Z" fill="#4B3C59"/>
<path d="M229.106 106.78C229.055 107.473 229.422 108.071 229.929 108.115C230.435 108.153 230.885 107.626 230.936 106.926C230.986 106.234 230.619 105.636 230.113 105.592C229.606 105.553 229.156 106.081 229.106 106.78Z" fill="#4B3C59"/>
<path d="M232.101 107.74C232.126 106.71 231.271 105.534 230.176 105.433C229.302 105.299 228.606 106.399 228.713 106.952C228.713 106.952 229.27 106.157 230.17 106.31C231.176 106.481 232.101 107.74 232.101 107.74Z" fill="#4B3C59"/>
<path d="M229.403 106.081C229.403 106.081 228.568 105.439 228.485 105.534C228.403 105.63 229.036 106.411 229.036 106.411L229.403 106.081Z" fill="#4B3C59"/>
<path d="M228.948 106.494C228.948 106.494 227.922 106.106 227.877 106.183C227.839 106.259 228.669 106.914 228.669 106.914L228.948 106.494V106.494Z" fill="#4B3C59"/>
<path d="M248.892 111.401C248.499 112.329 247.695 112.876 247.1 112.622C246.505 112.367 246.34 111.408 246.733 110.48C247.125 109.552 247.93 109.005 248.525 109.259C249.12 109.513 249.284 110.473 248.892 111.401Z" fill="#D27A84"/>
<path d="M274.098 180.73C272.61 180.374 270.913 179.56 270.134 179.058C269.355 178.562 266.278 174.888 264.157 171.621C262.036 168.354 259.725 163.192 259.725 163.192C262.745 161.584 263.879 158.597 263.879 158.597L263.841 158.489C263.644 158.037 263.442 157.586 263.246 157.135L257.952 159.143L256.059 160.072C260.004 168.805 268.931 178.734 269.799 179.687C269.799 179.687 270.533 180.628 271.648 182.865C272.369 184.308 273.509 183.495 275.434 182.992C275.586 182.954 275.738 182.897 275.89 182.833L274.117 180.736L274.098 180.73Z" fill="#D37A85"/>
<path d="M252.931 126.923C257.364 128.627 259.06 146.247 264.582 157.612C264.582 157.612 262.46 161.444 256.23 162.728C256.23 162.728 251.133 155.056 249.436 145.821C247.968 137.818 252.925 126.93 252.925 126.93L252.931 126.923Z" fill="#FF2400"/>
<path d="M203.026 125.786C205.198 127.584 207.743 133.833 210.01 138.288C212.277 142.738 213.923 144.537 216.189 147.95C218.456 151.357 218.975 155.997 216.424 157.421C213.878 158.838 210.573 156.944 207.553 151.077C204.533 145.204 203.07 134.125 201.469 131.188L203.026 125.792V125.786Z" fill="url(#paint6_linear_8_1711)"/>
<path d="M257.307 174.373C255.939 164.712 250.576 157.465 250.475 153.067C250.361 147.956 251.95 145.903 253.115 139.572C253.824 135.74 255.85 128.474 252.925 126.93C249.531 125.131 248.537 125.366 248.537 125.366C248.537 125.366 244.485 131.761 238.116 131.614C231.746 131.474 231.892 125.48 231.892 125.48C231.892 125.48 229.631 126.11 227.928 127.044C227.928 127.044 224.553 135.422 224.674 139.998C224.794 144.613 228.707 150.473 228.777 153.067C228.916 158.463 225.098 158.088 221.844 174.373C226.826 179.204 252.165 177.64 257.3 174.373H257.307Z" fill="#FF2400"/>
<path d="M243.092 88.7346C241.433 85.8107 238.622 85.4421 235.621 86.5163C232.531 87.6286 228.485 90.1012 227.434 93.3747C227.365 93.5909 227.713 93.7498 227.808 93.5337C228.91 90.9784 231.164 89.4465 233.519 88.1054C236.805 86.2302 240.205 85.5056 242.788 88.919C242.921 89.0969 243.213 88.9444 243.099 88.741L243.092 88.7346Z" fill="#303030"/>
<path d="M250.399 262.376H244.669C244.434 262.376 244.251 262.567 244.257 262.802C244.257 263.037 244.46 263.228 244.694 263.228H250.424C250.658 263.228 250.842 263.037 250.836 262.802C250.836 262.567 250.633 262.376 250.399 262.376Z" fill="#363344"/>
<path d="M238.59 262.523C238.546 260.927 241.864 260.571 244.131 259.395C244.586 259.325 246.182 260.603 246.245 263.228H239.736C238.533 263.228 238.584 262.516 238.584 262.516L238.59 262.523Z" fill="#363344"/>
<path d="M268.336 185.503L269.913 180.138C270.02 179.776 270.4 179.566 270.767 179.674L282.512 183.1C282.873 183.209 283.082 183.59 282.975 183.959L281.398 189.33C281.29 189.692 280.911 189.902 280.543 189.794L268.798 186.368C268.437 186.26 268.228 185.878 268.336 185.51V185.503Z" fill="#C5BBC7"/>
<path d="M268.634 185.433L270.122 180.361C270.21 180.056 270.527 179.884 270.831 179.973L282.278 183.317C282.582 183.406 282.753 183.723 282.664 184.028L281.177 189.101C281.088 189.406 280.771 189.578 280.467 189.489L269.02 186.145C268.716 186.056 268.545 185.738 268.634 185.433Z" fill="#ECEAED"/>
<path d="M269.723 186.101L271.401 180.386L281.588 183.361L279.91 189.069L269.723 186.101Z" fill="#363344"/>
<path d="M281.588 183.361L271.401 180.393L269.723 186.107L279.91 189.075L281.588 183.361ZM269.982 185.98L271.546 180.641L281.322 183.488L279.758 188.828L269.982 185.98Z" fill="#2D2C3A"/>
<path d="M281.221 186.717C281.063 186.673 280.968 186.501 281.018 186.342C281.063 186.183 281.233 186.088 281.392 186.139C281.55 186.183 281.645 186.355 281.594 186.514C281.55 186.673 281.379 186.768 281.221 186.717Z" fill="#2D2C3A"/>
<path d="M276.168 186.685C276.922 186.908 276.782 189.4 275.478 189.107C274.883 188.974 274.946 188.402 275.041 187.817C275.162 187.054 275.497 186.488 276.168 186.685Z" fill="#FFB7A7"/>
<path d="M272.572 186.062C273.23 186.279 272.927 188.643 271.818 188.211C271.312 188.014 271.249 187.601 271.363 187.086C271.515 186.406 271.983 185.865 272.572 186.062V186.062Z" fill="#FFB7A7"/>
<path d="M274.218 186.266C274.978 186.463 274.908 189.196 273.61 188.853C273.021 188.7 273.059 188.16 273.135 187.575C273.237 186.813 273.541 186.082 274.218 186.26V186.266Z" fill="#FFB7A7"/>
<path d="M275.231 178.473C276.491 178.969 277.479 179.789 277.903 180.857C278.327 181.925 278.91 182.967 278.201 183.278C277.346 183.653 276.82 182.103 276.08 181.263C275.807 180.952 274.066 181.162 273.503 180.094C272.939 179.026 273.902 177.952 275.238 178.473H275.231Z" fill="url(#paint7_linear_8_1711)"/>
<path d="M252.678 141.689C252.678 141.689 247.03 147.378 235.995 147.098C227.65 146.882 225.149 142.897 225.149 142.897C226.219 146.838 228.726 150.988 228.777 153.061C228.916 158.457 225.098 158.082 221.844 174.367C226.826 179.198 252.165 177.634 257.3 174.367C255.933 164.705 250.57 157.459 250.468 153.061C250.373 148.567 251.583 146.437 252.672 141.689H252.678Z" fill="#CC1C05"/>
<path d="M237.565 91.4234C238.958 96.6101 243.143 100.742 248.36 101.968C248.449 101.988 248.487 101.854 248.398 101.829C243.263 100.322 239.439 96.4703 237.945 91.3217C237.875 91.0801 237.495 91.1818 237.565 91.4297V91.4234Z" fill="#303030"/>
<path d="M244.295 97.0233C246.543 99.2989 249.962 100.983 253.058 101.702C253.216 101.74 253.273 101.517 253.121 101.466C251.475 100.869 249.848 100.297 248.309 99.4578C246.929 98.7077 245.707 97.7479 244.397 96.8962C244.314 96.8453 244.232 96.9597 244.295 97.0297V97.0233Z" fill="#303030"/>
<path d="M244.694 92.237C245.897 94.0994 247.841 95.6185 250.025 96.0889C250.095 96.1016 250.114 96.0126 250.057 95.9872C247.955 95.1037 246.252 93.9405 244.846 92.1289C244.783 92.0463 244.643 92.1543 244.7 92.2433L244.694 92.237Z" fill="#303030"/>
<path d="M244.441 89.6182C246.644 89.9932 248.132 91.0166 249.69 92.5675C249.766 92.6438 249.886 92.5484 249.835 92.4531C248.86 90.5653 246.543 89.3894 244.479 89.3385C244.327 89.3385 244.283 89.5864 244.441 89.6118V89.6182Z" fill="#303030"/>
<path d="M249.677 125.525C248.841 125.29 248.537 125.36 248.537 125.36C248.537 125.36 244.485 131.754 238.116 131.608C231.746 131.468 231.892 125.474 231.892 125.474C231.892 125.474 231.246 125.652 230.385 125.964C230.6 127.47 231.626 132.199 236.134 133.032L237.267 136.585L238.825 133.032C238.825 133.032 246.689 132.352 249.677 125.525V125.525Z" fill="#FF8B7B"/>
<path d="M216.424 157.421C218.526 156.226 219.729 151.573 214.702 145.674C219.691 152.387 217.475 157.313 214.632 157.135C211.612 156.944 208.876 154.103 205.951 143.78C203.026 133.458 201.469 131.182 201.469 131.182C203.07 134.119 204.533 145.198 207.553 151.071C210.573 156.944 213.885 158.857 216.424 157.415V157.421Z" fill="#D37A85"/>
<path d="M225.313 260.4H203.805V263.94H225.313V260.4Z" fill="#CC9767"/>
<path d="M117.202 260.4H7.95723V263.94H117.202V260.4Z" fill="#CC9767"/>
<path d="M118.05 62H203.165C204.413 62 205.432 63.017 205.432 64.2756V263.94H115.784V64.2756C115.784 63.0234 116.797 62 118.05 62V62Z" fill="#CC9767"/>
<path d="M121.115 66.2651H200.247C201.032 66.2651 201.671 66.9071 201.671 67.6952V263.718H119.69V67.7016C119.69 66.9134 120.33 66.2714 121.115 66.2714V66.2651Z" fill="#E8BC8B"/>
<path d="M182.499 152.584C183.177 189.571 183.17 226.762 184.373 263.711H185.507C185.494 228.548 184.329 193.29 183.81 158.146C183.367 127.896 180.65 96.6355 181.752 66.2651H180.112C178.745 94.5697 181.993 124.667 182.499 152.584V152.584Z" fill="#DEB07C"/>
<path d="M179.587 263.718C178.726 198.006 177.694 131.748 175.003 66.2714H173.901C174.445 131.983 176.313 198.025 178.016 263.718H179.587Z" fill="#DEB07C"/>
<path d="M163.251 263.718H164.72C165.322 231.351 164.6 198.699 164.347 166.383C164.081 133.064 164.081 99.5785 163.22 66.2651H161.58C161.751 99.6294 162.548 133.019 162.814 166.383C163.074 198.75 162.612 231.332 163.251 263.718V263.718Z" fill="#DEB07C"/>
<path d="M150.05 263.718H151.633C152.823 197.847 152.006 131.945 148.98 66.2714H147.942C150.468 131.996 151.24 197.873 150.05 263.718V263.718Z" fill="#DEB07C"/>
<path d="M141.591 263.718H142.68C143.009 230.544 140.527 197.377 139.261 164.343C138.007 131.494 138.463 99.0255 139.299 66.2714H137.684C134.652 132.244 140.54 197.815 141.591 263.718V263.718Z" fill="#DEB07C"/>
<path d="M126.554 164.33C127.934 197.428 128.814 230.614 130.15 263.711H131.53C131.214 230.569 129.029 197.326 127.763 164.33C126.509 131.595 126.313 98.981 125.781 66.2651H124.084C123.381 98.803 125.205 132.104 126.554 164.33V164.33Z" fill="#DEB07C"/>
<path d="M192.041 169.047C192.262 200.835 194.396 232.146 195.757 263.711H197.442C196.973 251.164 195.827 238.648 195.169 226.164C194.168 207.178 193.668 188.109 193.484 169.047C193.162 134.723 194.472 100.532 194.827 66.2651H193.472C192.085 100.367 191.807 134.92 192.041 169.047V169.047Z" fill="#DEB07C"/>
<path d="M190.946 79.2637H130.416V164.248H190.946V79.2637Z" fill="#CC9767"/>
<path d="M143.915 126.784C143.389 110.963 143.415 95.0592 142.408 79.2637H141.661C141.604 94.3282 142.528 109.431 142.933 124.489C143.282 137.583 145.504 151.141 144.339 164.248H145.523C146.998 152.037 144.32 138.918 143.921 126.79L143.915 126.784Z" fill="#C78F63"/>
<path d="M146.067 79.2637C146.739 107.543 147.517 136.076 149.683 164.248H150.398C150.018 135.968 148.537 107.537 147.207 79.2637H146.067V79.2637Z" fill="#C78F63"/>
<path d="M158.294 79.2637H157.312C156.755 93.165 157.331 107.2 157.534 121.088C157.743 135.454 157.73 149.895 158.471 164.248H159.63C159.541 149.863 158.895 135.473 158.693 121.088C158.49 107.181 158.876 93.1713 158.3 79.2637H158.294Z" fill="#C78F63"/>
<path d="M168.317 79.2637H167.126C166.132 107.613 166.772 135.981 169.216 164.248H169.969C167.937 135.962 167.322 107.607 168.317 79.2637V79.2637Z" fill="#C78F63"/>
<path d="M174.566 79.2637H173.831C173.394 93.5082 175.37 107.746 176.358 121.934C177.345 136.108 176.921 150.105 176.244 164.248H177.377C180.062 135.848 175.231 107.632 174.566 79.2637V79.2637Z" fill="#C78F63"/>
<path d="M185.893 121.934C184.817 107.721 184.145 93.4701 183.075 79.2637H182.138C182.265 93.4892 184 107.765 184.988 121.934C185.975 136.057 186.089 150.13 186.532 164.248H187.666C188.4 150.238 186.95 135.841 185.899 121.934H185.893Z" fill="#C78F63"/>
<path d="M136.76 119.982C136.589 106.31 134.854 92.8472 133.848 79.2637H132.619C132.879 84.9908 133.873 90.6987 134.417 96.394C135.165 104.238 135.544 112.113 135.677 119.989C135.931 134.767 134.854 149.488 134.639 164.248H135.551C136.709 149.577 136.944 134.684 136.76 119.989V119.982Z" fill="#C78F63"/>
<path d="M190.946 186.8H130.416V255.416H190.946V186.8Z" fill="#CC9767"/>
<path d="M175.585 186.8H174.325C174.667 195.451 176.016 204.254 176.288 212.587C176.763 226.838 176.788 241.165 177.523 255.416H178.529C178.409 241.909 177.63 228.376 177.269 214.888C177.022 205.653 175.845 196.182 175.585 186.806V186.8Z" fill="#C78F63"/>
<path d="M170.026 186.8C170.558 209.657 171.698 232.578 172.78 255.416H174.028C173.477 232.584 172.799 209.6 171.343 186.8H170.026V186.8Z" fill="#C78F63"/>
<path d="M162.669 218.283C162.517 207.807 162.485 197.294 162.188 186.8H160.75C160.978 197.294 161.364 207.795 161.516 218.283C161.694 230.627 161.409 243.053 161.744 255.41H163.036C163.321 243.047 162.846 230.607 162.669 218.283V218.283Z" fill="#C78F63"/>
<path d="M151.892 186.8H150.993C152.317 209.651 152.697 232.533 152.038 255.416H153.228C153.887 232.533 153.469 209.638 151.899 186.8H151.892Z" fill="#C78F63"/>
<path d="M143.484 186.8H142.117C141.439 209.702 144.611 232.514 145.491 255.416H146.435C146.39 242.742 144.725 230.067 143.851 217.444C143.136 207.178 143.161 197.008 143.484 186.806V186.8Z" fill="#C78F63"/>
<path d="M133.993 186.8H132.379C132.575 197.046 133.55 207.369 134.31 217.437C135.272 230.087 135.905 242.761 136.792 255.416H137.969C137.564 242.748 136.095 230.048 135.215 217.437C134.5 207.21 134.246 197.008 133.993 186.8V186.8Z" fill="#C78F63"/>
<path d="M184.525 219.382C184.342 208.5 184.874 197.65 185.253 186.793H183.918C183.398 197.65 183.31 208.564 183.443 219.382C183.595 231.478 184.969 243.409 185.982 255.41H187.235C186.817 251.259 186.184 247.108 185.792 242.977C185.045 235.133 184.665 227.258 184.532 219.382H184.525Z" fill="#C78F63"/>
<path d="M130.416 79.2637V164.248H190.946V79.2637H130.416ZM188.647 161.642H132.714V81.8698H188.647V161.642Z" fill="#AD7A52"/>
<path d="M130.416 186.8V255.359H190.946V186.8H130.416V186.8ZM188.647 252.855H132.714V189.304H188.647V252.855Z" fill="#AD7A52"/>
<path d="M200.272 66.2651H121.089C120.317 66.2651 119.69 66.9198 119.69 67.727V263.718H121.609V69.6911C121.609 68.9029 122.223 68.261 122.976 68.261H198.398C199.151 68.261 199.765 68.9029 199.765 69.6911V263.718H201.684V67.727C201.684 66.9198 201.057 66.2651 200.285 66.2651H200.272Z" fill="#AD7A52"/>
<path d="M134.62 176.477C134.62 179.242 132.391 181.48 129.637 181.48C126.883 181.48 124.654 179.242 124.654 176.477C124.654 173.712 126.883 171.475 129.637 171.475C132.391 171.475 134.62 173.712 134.62 176.477Z" fill="#CC9767"/>
<path d="M134.62 175.378C134.62 178.143 132.391 180.38 129.637 180.38C126.883 180.38 124.654 178.143 124.654 175.378C124.654 172.613 126.883 170.375 129.637 170.375C132.391 170.375 134.62 172.613 134.62 175.378Z" fill="#F8E0CC"/>
<path d="M125.085 175.378C125.085 175.479 125.085 175.575 125.097 175.676C127.421 175.467 129.238 173.509 129.238 171.125C129.238 171.023 129.238 170.928 129.226 170.826C126.902 171.036 125.085 172.994 125.085 175.378Z" fill="#F8F7F5"/>
<path d="M140.958 179.503H129.529C128.44 179.503 127.554 178.613 127.554 177.52C127.554 176.426 128.44 175.536 129.529 175.536H140.958C142.047 175.536 142.933 176.426 142.933 177.52C142.933 178.613 142.047 179.503 140.958 179.503Z" fill="#CC9767"/>
<path d="M127.554 175.549V179.922C128.187 180.215 128.89 180.38 129.637 180.38C132.334 180.38 134.525 178.231 134.614 175.549H127.554Z" fill="#CFA893"/>
<path d="M140.958 177.361H129.529C128.44 177.361 127.554 176.471 127.554 175.378C127.554 174.284 128.44 173.394 129.529 173.394H140.958C142.047 173.394 142.933 174.284 142.933 175.378C142.933 176.471 142.047 177.361 140.958 177.361Z" fill="#F8E0CC"/>
<path d="M140.958 176.344H129.529C128.618 176.344 127.852 175.721 127.624 174.875C127.579 175.041 127.554 175.212 127.554 175.39C127.554 176.484 128.44 177.373 129.529 177.373H140.958C142.047 177.373 142.933 176.484 142.933 175.39C142.933 175.212 142.908 175.041 142.864 174.875C142.636 175.721 141.87 176.344 140.958 176.344Z" fill="#D7B49D"/>
<path d="M134.652 175.003H129.65C129.365 175.003 129.131 174.767 129.131 174.481C129.131 174.195 129.365 173.96 129.65 173.96H134.652C134.937 173.96 135.171 174.195 135.171 174.481C135.171 174.767 134.937 175.003 134.652 175.003Z" fill="#F8F7F5"/>
<path d="M137.343 175.003H136.266C135.981 175.003 135.747 174.767 135.747 174.481C135.747 174.195 135.981 173.96 136.266 173.96H137.343C137.627 173.96 137.862 174.195 137.862 174.481C137.862 174.767 137.627 175.003 137.343 175.003Z" fill="#F8F7F5"/>
<path d="M163.935 114.471C163.935 116.448 162.479 118.05 160.681 118.05C158.883 118.05 157.426 116.448 157.426 114.471C157.426 112.494 158.883 110.893 160.681 110.893C162.479 110.893 163.935 112.494 163.935 114.471Z" fill="#A3714E"/>
<path d="M163.935 113.295C163.935 115.101 162.479 116.563 160.681 116.563C158.883 116.563 157.426 115.101 157.426 113.295C157.426 111.49 158.883 110.028 160.681 110.028C162.479 110.028 163.935 111.49 163.935 113.295Z" fill="#F8E0CC"/>
<path d="M160.681 115.628C161.964 115.628 163.004 114.584 163.004 113.295C163.004 112.007 161.964 110.963 160.681 110.963C159.397 110.963 158.357 112.007 158.357 113.295C158.357 114.584 159.397 115.628 160.681 115.628Z" fill="#363344"/>
<path d="M160.681 114.993C161.614 114.993 162.371 114.233 162.371 113.295C162.371 112.358 161.614 111.598 160.681 111.598C159.747 111.598 158.99 112.358 158.99 113.295C158.99 114.233 159.747 114.993 160.681 114.993Z" fill="#626376"/>
<path d="M159.3 113.295C159.3 113.48 159.338 113.651 159.402 113.81C159.528 113.848 159.661 113.874 159.807 113.874C160.56 113.874 161.175 113.257 161.175 112.501C161.175 112.317 161.137 112.145 161.073 111.986C160.947 111.948 160.814 111.922 160.668 111.922C159.915 111.922 159.3 112.539 159.3 113.295Z" fill="#A5ADBC"/>
<path d="M106.343 103.481H99.4672C98.6245 103.481 97.9413 104.167 97.9413 105.013V112.132C97.9413 112.978 98.6245 113.664 99.4672 113.664H106.343C107.186 113.664 107.869 112.978 107.869 112.132V105.013C107.869 104.167 107.186 103.481 106.343 103.481Z" fill="#C5BBC7"/>
<path d="M105.881 103.481H99.3849C98.5876 103.481 97.9413 104.13 97.9413 104.931V111.694C97.9413 112.494 98.5876 113.143 99.3849 113.143H105.881C106.678 113.143 107.325 112.494 107.325 111.694V104.931C107.325 104.13 106.678 103.481 105.881 103.481Z" fill="#E7DEE8"/>
<path d="M98.3908 105.255V109.526C98.8404 109.666 99.3152 109.736 99.8091 109.736C102.494 109.736 104.665 107.549 104.665 104.861C104.665 104.549 104.634 104.244 104.577 103.945H99.6951C98.9733 103.945 98.3908 104.53 98.3908 105.255Z" fill="#F6F0F7"/>
<path d="M105.153 108.312C105.153 109.71 104.026 110.835 102.639 110.835C101.253 110.835 100.126 109.704 100.126 108.312C100.126 106.92 101.253 105.789 102.639 105.789C104.026 105.789 105.153 106.92 105.153 108.312Z" fill="#626376"/>
<path d="M104.463 108.312C104.463 109.329 103.646 110.149 102.633 110.149C101.62 110.149 100.803 109.329 100.803 108.312C100.803 107.295 101.62 106.475 102.633 106.475C103.646 106.475 104.463 107.295 104.463 108.312Z" fill="#E7DEE8"/>
<path d="M101.145 108.312C101.145 108.509 101.183 108.7 101.253 108.871C101.392 108.916 101.538 108.935 101.69 108.935C102.506 108.935 103.171 108.268 103.171 107.448C103.171 107.251 103.133 107.06 103.064 106.888C102.924 106.844 102.779 106.825 102.627 106.825C101.81 106.825 101.145 107.492 101.145 108.312Z" fill="white"/>
<path d="M221.419 270.868C221.419 273.15 194.099 275 160.396 275C126.693 275 99.3722 273.15 99.3722 270.868C99.3722 268.587 126.693 266.737 160.396 266.737C194.099 266.737 221.419 268.587 221.419 270.868Z" fill="#BF3054"/>
<path d="M160.396 273.366C193.182 273.366 219.76 271.935 219.76 270.169C219.76 268.403 193.182 266.972 160.396 266.972C127.61 266.972 101.031 268.403 101.031 270.169C101.031 271.935 127.61 273.366 160.396 273.366Z" fill="#D94167"/>
<path d="M69.5506 144.079C69.5506 144.079 76.6039 152.819 80.8651 157.389C85.1262 161.959 94.364 171.405 94.364 171.405L87.8741 173.343C87.8741 173.343 78.8643 169.218 72.4188 163.358C65.5934 157.154 60.5851 149.577 60.5851 149.577L69.5569 144.085L69.5506 144.079Z" fill="#E89207"/>
<path d="M75.5339 163.116C69.6582 157.777 65.9479 151.796 65.9479 151.796C69.4683 149.704 71.0955 147.34 71.64 146.691C70.2281 144.975 69.5506 144.079 69.5506 144.079L60.5788 149.571C60.5788 149.571 65.5934 157.148 72.4125 163.351C78.858 169.212 87.8678 173.337 87.8678 173.337L89.0645 172.981C86.5572 171.424 80.156 167.324 75.5276 163.116H75.5339Z" fill="#E89207"/>
<path d="M57.356 148.821C57.356 148.821 71.1082 143.939 69.2783 140.386C66.4291 137.271 62.1933 127.006 58.54 124.514C56.134 122.626 49.7708 131.735 51.3854 138.295C52.715 143.704 57.356 148.821 57.356 148.821V148.821Z" fill="#E89207"/>
<path d="M56.6532 149.259C60.4585 147.346 66.8344 143.138 69.6076 139.763L72.824 143.602C70.38 146.564 64.9602 151.052 59.705 153.251L56.6532 149.259Z" fill="#E89207"/>
<path d="M46.2061 85.8743C62.9215 73.0536 68.8921 97.1822 68.8921 97.1822C68.8921 97.1822 69.2657 100.24 65.9416 101.142C64.6183 101.504 56.381 104.708 56.381 104.708L47.3458 110.785C47.3458 110.785 42.1856 109.119 41.2105 100.513C40.3178 92.6056 42.5845 85.6963 46.2061 85.8743V85.8743Z" fill="#212121"/>
<path d="M54.8994 116.474C53.8293 118.914 53.5064 121.896 53.5761 122.169C53.5761 122.169 51.7399 124.781 45.687 124.514C42.0083 122.982 38.6969 119.684 38.6969 119.684C39.8619 119.264 42.7681 118.616 44.6992 114.808C46.3328 111.579 46.2125 105.897 46.2125 105.897L50.0494 107.397L54.9057 116.474H54.8994Z" fill="#D27A84"/>
<path d="M47.3965 99.9853C47.9663 100.678 47.7827 102.363 48.9034 102.477C50.29 102.617 49.9608 97.6208 52.6453 94.004C53.709 92.5675 56.4379 90.3047 60.7814 91.4552C66.2012 92.8917 66.7647 96.019 66.7964 99.0573C66.8154 100.475 66.6001 103.424 64.5993 108.433C62.2123 114.401 58.8819 117.758 56.3556 117.916C54.6651 118.018 53.3102 117.516 52.0628 116.493C49.9228 114.745 47.5548 111.903 46.9279 106.373C44.1041 105.871 43.2113 103.558 43.6609 101.759C44.1231 99.9027 45.7629 98.517 47.4028 99.9917L47.3965 99.9853Z" fill="url(#paint8_linear_8_1711)"/>
<path d="M47.1875 102.699C47.2635 103.71 46.7823 104.568 46.1112 104.619C45.44 104.67 44.8322 103.894 44.7562 102.884C44.6802 101.873 45.1614 101.015 45.8326 100.964C46.5037 100.913 47.1116 101.689 47.1875 102.699V102.699Z" fill="#D27A84"/>
<path d="M63.428 100.341C63.8395 99.445 65.1818 99.8328 66.2835 100.57C67.1826 101.168 67.5372 102.655 67.1193 102.973C66.5051 103.443 66.3975 102.776 65.3591 102.166C64.1624 101.46 63.0101 101.257 63.428 100.341V100.341Z" fill="#212121"/>
<path d="M59.1289 98.7013C59.0972 97.8877 58.0462 97.6462 55.8428 97.9259C53.937 98.1674 52.3098 99.356 52.6327 99.9726C52.9746 100.615 54.07 100.17 55.9947 99.8391C57.432 99.5912 59.1669 99.8264 59.1225 98.7077L59.1289 98.7013Z" fill="#212121"/>
<path d="M62.244 100.354C61.7438 101.009 61.2879 101.663 60.984 102.369C60.8257 102.725 60.6928 103.087 60.6231 103.462C60.5661 103.647 60.5471 103.831 60.5281 104.022C60.5155 104.212 60.4712 104.397 60.4965 104.581C60.4775 105.331 60.6421 106.068 60.946 106.748C61.1043 107.085 61.2816 107.416 61.4905 107.721C61.5982 107.873 61.7058 108.026 61.8261 108.166C61.9337 108.312 62.0857 108.439 62.168 108.566L62.4656 109.056L62.2313 109.316C62.0604 109.507 61.9337 109.583 61.7818 109.698C61.6298 109.793 61.4779 109.882 61.3196 109.946C61.003 110.085 60.6738 110.162 60.3445 110.194C59.686 110.244 59.0655 110.124 58.5084 109.901C58.464 109.882 58.4451 109.838 58.464 109.793C58.4767 109.755 58.5147 109.736 58.5527 109.742C59.1352 109.799 59.7114 109.742 60.2052 109.552C60.4522 109.45 60.6738 109.323 60.87 109.164C60.965 109.088 61.0537 108.999 61.1296 108.91C61.1993 108.827 61.2879 108.706 61.2943 108.655L61.3639 109.399C61.1613 109.234 61.0537 109.049 60.9207 108.871C60.7941 108.693 60.6738 108.509 60.5661 108.318C60.3445 107.943 60.1609 107.543 60.0026 107.13C59.705 106.303 59.5657 105.407 59.6607 104.536C59.6607 104.314 59.7304 104.104 59.7747 103.888C59.819 103.672 59.8633 103.462 59.952 103.265C60.0849 102.852 60.2685 102.471 60.4838 102.102C60.6738 101.721 60.9713 101.403 61.2056 101.06C61.4779 100.754 61.7691 100.475 62.054 100.182C62.1047 100.131 62.187 100.125 62.2377 100.176C62.2883 100.22 62.2946 100.303 62.2503 100.354H62.244Z" fill="#D27A84"/>
<path d="M53.7724 101.384C53.7724 101.384 53.918 101.759 54.2219 102.197C54.4942 102.655 54.9817 103.094 55.5452 103.31C55.6782 103.367 55.8554 103.405 55.9694 103.437C56.1847 103.488 56.2353 103.481 56.381 103.488C56.6342 103.488 56.8938 103.45 57.1218 103.348C57.565 103.144 57.9005 102.877 57.9005 102.877C57.9005 102.877 57.9069 102.986 57.8499 103.157C57.7929 103.322 57.7106 103.589 57.4763 103.818C57.2674 104.066 56.9128 104.32 56.4696 104.384C56.267 104.435 55.9568 104.397 55.8111 104.378C55.5705 104.339 55.3869 104.269 55.178 104.174C54.7728 104.003 54.4182 103.697 54.1776 103.373C53.9496 103.03 53.8294 102.68 53.7534 102.382C53.6457 101.771 53.7724 101.384 53.7724 101.384V101.384Z" fill="#634A64"/>
<path d="M62.1933 103.933C62.1933 103.933 62.4023 104.193 62.6935 104.498C62.9784 104.816 63.371 105.128 63.7636 105.261C63.8395 105.299 63.9852 105.331 64.1055 105.35C64.1814 105.356 64.2827 105.382 64.3777 105.382C64.555 105.375 64.745 105.356 64.9032 105.248C65.2325 105.058 65.4541 104.784 65.4541 104.784C65.4541 104.784 65.5681 105.128 65.3085 105.611C65.1692 105.833 64.9096 106.113 64.5423 106.208C64.3651 106.253 64.1751 106.284 63.9662 106.259C63.7952 106.24 63.6496 106.221 63.4533 106.151C63.0987 106.017 62.7948 105.782 62.5986 105.515C62.3959 105.255 62.301 104.962 62.2313 104.727C62.1174 104.244 62.206 103.914 62.206 103.914L62.1933 103.933Z" fill="#634A64"/>
<path d="M48.4412 261.747C49.0807 264.042 47.4915 265.707 48.0233 267.372C48.6375 269.292 61.9084 268.841 62.0857 267.639C62.4403 265.243 54.5955 264.944 53.5634 263.057C52.8416 261.734 53.1329 260.419 53.1329 260.419L48.4349 261.753L48.4412 261.747Z" fill="#363344"/>
<path d="M7.46969 261.747C7.55834 264.042 5.5639 265.707 5.69686 267.372C5.84882 269.292 19.2274 268.841 19.6959 267.639C20.633 265.243 12.8578 264.944 12.2817 263.057C11.8828 261.734 12.4906 260.419 12.4906 260.419L7.46969 261.753V261.747Z" fill="#363344"/>
<path d="M40.3748 117.408C40.3748 117.408 32.5237 119.175 30.276 120.103C23.4885 122.893 21.2978 131.106 17.062 142.979C13.1618 153.912 11.3763 162.582 13.0225 165.474C14.8206 168.633 41.3055 174.062 48.6121 167.756C52.4111 164.476 54.0699 155.8 56.2037 150.162C58.3374 144.524 63.3583 131.983 60.8257 127.19C59.2682 124.241 55.5515 121.743 55.5515 121.743L49.7328 123.11L40.3748 117.402V117.408Z" fill="#FFA70B"/>
<path d="M38.8679 168.831L38.1271 168.551C41.926 158.298 46.5734 140.856 46.624 140.685C48.4855 133.636 48.5108 126.777 48.5108 126.714H49.3023C49.3023 126.784 49.2833 133.737 47.3902 140.888C47.3458 141.06 42.6858 158.546 38.8679 168.831Z" fill="#E89207"/>
<path d="M24.0584 125.709C21.4814 129.828 19.6516 135.72 17.062 142.986C13.1618 153.919 11.1863 163.154 13.0225 165.481C15.2765 168.328 41.3055 174.068 48.6121 167.763C50.309 166.301 51.5753 163.765 52.6517 160.898C32.2071 151.713 25.5843 131.513 24.0647 125.709H24.0584Z" fill="#FFA70B"/>
<path d="M38.8679 168.831L38.1271 168.551C39.3871 165.163 40.8813 160.586 42.5655 154.955L43.3253 155.184C41.6284 160.828 40.1342 165.424 38.8679 168.824V168.831Z" fill="#E89207"/>
<path d="M40.7483 117.294L40.0202 117.516L45.0158 128.837L47.6941 126.37L48.6185 127.75L50.1887 126.472L51.607 129.911L55.7351 121.857L55.4186 121.648L49.8468 122.817L40.7483 117.294Z" fill="#E89207"/>
<path d="M44.1927 114.529L49.8468 122.817L45.44 126.898L40.4634 116.779L44.1927 114.529Z" fill="#E7DEE8"/>
<path d="M49.8468 122.817L52.1262 128.125L55.7478 121.387L54.1586 118.215L49.8468 122.817Z" fill="#E7DEE8"/>
<path d="M48.1309 170.242C48.1309 170.242 56.0581 202.691 57.375 213.357C58.692 224.061 58.1791 238.013 58.5907 243.492C59.0022 248.971 58.9199 253.865 58.5337 256.376C58.1475 258.887 55.3996 261.563 51.7146 262.383C48.0296 263.203 44.7436 261.639 43.6609 258.588C42.5718 255.537 42.5149 227.9 41.9007 221.912C41.2865 215.924 32.1501 192.927 32.1501 192.927L32.7959 171.602L48.1373 170.235L48.1309 170.242Z" fill="#474557"/>
<path d="M12.2437 169.377C12.2437 169.377 11.3636 176.134 11.2243 185.796C11.0787 195.762 13.2694 212.46 12.4906 218.289C11.7055 224.111 3.81638 250.7 4 254.666C4.18361 258.633 5.32962 261.321 7.76094 262.249C10.1733 263.165 15.3778 263.514 17.9294 258.753C19.6643 255.518 26.9266 228.885 28.9653 219.598C29.7504 216.026 34.4801 188.535 34.4801 188.535L37.323 186.933L36.6835 171.742L12.2437 169.377V169.377Z" fill="#626376"/>
<path d="M48.6501 171.214C37.4433 174.017 23.7988 173.127 12.2437 169.377L13.0225 165.481C24.7992 169.212 38.0828 170.178 48.8591 167.419L48.6565 171.214H48.6501Z" fill="#363344"/>
<path d="M29.508 168.256L27.7858 168.108C27.312 168.067 26.8949 168.419 26.8543 168.895L26.4946 173.107C26.454 173.582 26.8052 174.001 27.279 174.042L29.0012 174.19C29.4751 174.231 29.8921 173.878 29.9327 173.403L30.2924 169.191C30.333 168.715 29.9818 168.297 29.508 168.256Z" fill="#626376"/>
<path d="M44.0702 168.001L45.9219 167.809C46.3564 167.764 46.7519 168.081 46.7974 168.524L47.2198 172.627C47.2647 173.063 46.9491 173.46 46.5083 173.506L44.6566 173.698C44.2221 173.743 43.8266 173.426 43.7811 172.984L43.3587 168.88C43.3138 168.444 43.6294 168.047 44.0702 168.001V168.001Z" fill="#474557"/>
<path d="M17.2165 166.398L18.8102 166.758C19.2982 166.869 19.6108 167.356 19.4996 167.852L18.6629 171.585C18.5531 172.075 18.0674 172.389 17.5733 172.278L15.9796 171.918C15.4916 171.807 15.179 171.32 15.2902 170.824L16.1269 167.09C16.2367 166.601 16.7223 166.287 17.2165 166.398V166.398Z" fill="#626376"/>
<path d="M59.3188 143.704L52.7783 142.833L53.6964 139.14L60.2369 140.011L59.3188 143.704Z" fill="#E7DEE8"/>
<path d="M85.7087 181.619L102.456 181.677C103.127 181.677 103.678 181.162 103.678 180.526L103.849 144.702C103.849 144.066 103.31 143.545 102.633 143.545L85.886 143.488C85.2149 143.488 84.664 144.003 84.664 144.638L84.4931 180.463C84.4931 181.098 85.0313 181.619 85.7087 181.619V181.619Z" fill="#EFBA73"/>
<path d="M87.5576 181.626L57.584 181.518C56.9191 181.518 56.3873 181.003 56.3873 180.374L56.5519 144.511C56.5519 143.882 57.0964 143.374 57.7549 143.38L87.7285 143.488C88.3933 143.488 88.9252 144.003 88.9252 144.632L88.7605 180.494C88.7605 181.124 88.216 181.632 87.5576 181.626V181.626Z" fill="#FFD68D"/>
<path d="M86.3292 145.986C86.3292 145.986 85.924 146.539 85.2085 147.505C84.4804 148.459 83.4674 149.851 82.1947 151.465C80.9221 153.08 79.4595 154.986 77.8513 156.989C76.2494 158.997 74.5019 161.114 72.767 163.231C71.0069 165.335 69.253 167.439 67.5752 169.39C65.91 171.348 64.3017 173.134 62.9531 174.685C61.6045 176.236 60.4205 177.481 59.6227 178.378C58.806 179.255 58.3374 179.757 58.3374 179.757C58.3374 179.757 58.7426 179.204 59.4581 178.238C60.1862 177.284 61.1929 175.892 62.4719 174.278C63.7446 172.663 65.2008 170.757 66.8154 168.754C68.4173 166.746 70.1648 164.629 71.9059 162.512C73.6661 160.408 75.42 158.304 77.0978 156.359C78.763 154.402 80.3712 152.616 81.7199 151.065C83.0748 149.514 84.2525 148.268 85.0502 147.372C85.867 146.494 86.3356 145.992 86.3356 145.992L86.3292 145.986Z" fill="#EFBA73"/>
<path d="M58.1601 144.918C58.1601 144.918 58.6477 145.439 59.4961 146.355C60.3255 147.283 61.5539 148.579 62.9595 150.187C64.3651 151.796 66.0366 153.645 67.7651 155.679C69.4936 157.713 71.3361 159.887 73.1786 162.055C74.9831 164.26 76.7876 166.46 78.4781 168.532C80.175 170.598 81.6882 172.581 83.0178 174.246C84.3475 175.918 85.3985 177.361 86.1646 178.346C86.9054 179.35 87.3359 179.922 87.3359 179.922C87.3359 179.922 86.8484 179.401 86 178.492C85.1706 177.564 83.9422 176.267 82.5366 174.659C81.131 173.051 79.4595 171.201 77.731 169.167C76.0025 167.133 74.16 164.96 72.3175 162.792C70.513 160.586 68.7085 158.381 67.018 156.315C65.3275 154.249 63.8142 152.266 62.4783 150.601C61.1486 148.929 60.0976 147.486 59.3315 146.501C58.5907 145.497 58.1601 144.924 58.1601 144.924V144.918Z" fill="#EFBA73"/>
<path d="M102.62 145.986C102.62 145.986 102.468 146.526 102.202 147.473C101.918 148.414 101.55 149.768 101.031 151.37C100.512 152.972 99.9421 154.847 99.2646 156.836C98.5998 158.832 97.8527 160.942 97.1119 163.059C96.3458 165.163 95.586 167.273 94.8325 169.237C94.0917 171.201 93.3383 173.019 92.7304 174.583C92.1163 176.147 91.5401 177.431 91.1665 178.34C90.7677 179.242 90.5461 179.751 90.5461 179.751C90.5461 179.751 90.698 179.21 90.9639 178.263C91.2489 177.323 91.6161 175.969 92.1353 174.367C92.6545 172.765 93.2243 170.89 93.9018 168.9C94.5666 166.905 95.3137 164.794 96.0545 162.678C96.8206 160.574 97.5867 158.463 98.3402 156.499C99.081 154.535 99.8344 152.717 100.442 151.154C101.056 149.59 101.633 148.306 102.006 147.397C102.405 146.494 102.627 145.986 102.627 145.986H102.62Z" fill="#E2A561"/>
<path d="M90.4637 144.918C90.4637 144.918 90.698 145.452 91.1096 146.386C91.4958 147.327 92.0909 148.656 92.7304 150.283C93.3699 151.904 94.1424 153.792 94.9148 155.826C95.6999 157.86 96.4914 160.046 97.2891 162.226C98.0679 164.419 98.8467 166.606 99.5369 168.678C100.24 170.737 100.841 172.689 101.386 174.348C101.93 176.007 102.316 177.412 102.614 178.384C102.893 179.363 103.051 179.929 103.051 179.929C103.051 179.929 102.817 179.395 102.405 178.46C102.019 177.52 101.424 176.191 100.784 174.564C100.145 172.943 99.3659 171.062 98.5998 169.021C97.8147 166.987 97.0232 164.801 96.2254 162.62C95.453 160.427 94.6742 158.241 93.9777 156.169C93.2749 154.103 92.6734 152.158 92.1289 150.499C91.5844 148.84 91.1982 147.435 90.9006 146.463C90.622 145.484 90.4637 144.918 90.4637 144.918Z" fill="#E2A561"/>
<path d="M99.5875 148.293H93.3066L93.3256 143.494L99.6128 143.52L99.5875 148.293Z" fill="#D6985B"/>
<path d="M86.6142 146.278H73.2989V154.395H86.6142V146.278Z" fill="#EFBA73"/>
<path d="M86.1773 146.278H73.2989V154.008H86.1773V146.278Z" fill="#F8F7F5"/>
<path d="M74.8248 147.429H73.9131V152.851H74.8248V147.429Z" fill="#D4C8D6"/>
<path d="M78.2059 147.429H77.2941V152.851H78.2059V147.429Z" fill="#D4C8D6"/>
<path d="M76.9649 147.429H76.2811V152.851H76.9649V147.429Z" fill="#D4C8D6"/>
<path d="M75.7239 147.429H75.268V152.851H75.7239V147.429Z" fill="#D4C8D6"/>
<path d="M79.01 147.429H78.7377V152.851H79.01V147.429Z" fill="#D4C8D6"/>
<path d="M80.4599 147.429H79.5481V152.851H80.4599V147.429Z" fill="#D4C8D6"/>
<path d="M85.5694 147.429H81.3336V148.115H85.5694V147.429Z" fill="#D4C8D6"/>
<path d="M85.5694 148.408H81.3336V149.094H85.5694V148.408Z" fill="#D4C8D6"/>
<path d="M85.5694 149.921H81.3336V150.162H85.5694V149.921Z" fill="#D4C8D6"/>
<path d="M85.5694 150.817H81.3336V151.058H85.5694V150.817Z" fill="#D4C8D6"/>
<path d="M85.5694 151.713H81.3336V151.955H85.5694V151.713Z" fill="#D4C8D6"/>
<path d="M85.5694 152.609H81.3336V152.851H85.5694V152.609Z" fill="#D4C8D6"/>
<path d="M74.179 159.061C75.2427 159.696 75.0274 160.269 74.0397 161.406C73.052 162.544 72.4188 163.351 72.4188 163.351C72.4188 163.351 80.6118 162.951 81.074 163.815C81.5362 164.673 80.9727 165.951 78.4274 166.097C78.4274 166.097 81.1943 165.792 81.5426 166.58C81.8908 167.369 80.9031 169.008 76.8002 168.939C76.8002 168.939 78.7377 168.78 78.934 169.32C79.1302 169.86 78.8263 171.208 74.4892 170.973C69.7532 170.712 66.6128 168.157 66.6128 168.157L71.6337 161.832L74.179 159.061V159.061Z" fill="#EFBA73"/>
<path d="M41.5968 142.299C42.8631 145.427 46.9533 150.702 51.0435 153.931C56.1467 157.955 59.914 161.495 66.9863 162.398L66.5241 168.004C66.5241 168.004 53.975 167.362 43.9331 161.063C35.3665 155.686 30.9851 147.181 30.9851 147.181L41.5968 142.293V142.299Z" fill="url(#paint9_linear_8_1711)"/>
<path d="M64.9159 167.864L64.7133 162.042C64.6626 162.029 64.517 161.966 64.46 161.953C63.0671 162.964 62.2883 166.269 62.2883 166.269C62.2883 166.269 51.3031 164.877 44.8765 160.58C38.45 156.277 34.6764 149.927 34.6764 149.927C39.0452 148.134 42.4389 145.363 42.9771 144.905C42.3756 143.952 41.9007 143.062 41.5904 142.299L30.9788 147.187C30.9788 147.187 35.3602 155.692 43.9268 161.07C51.7969 166.008 61.2056 167.47 64.9096 167.871L64.9159 167.864Z" fill="#D27A84"/>
<path d="M28.0662 144.746L41.3055 138.155C39.3237 134.837 35.4108 119.239 27.9586 122.067C20.5 124.889 23.4949 137.221 28.0662 144.746V144.746Z" fill="#E89207"/>
<path d="M27.1862 144.842C32.5047 141.931 37.6965 139.553 41.831 137.723L44.1294 142.198C40.9446 144.746 35.5628 147.251 29.5225 149.336L27.1862 144.842V144.842Z" fill="#E7DEE8"/>
<path d="M64.8273 161.425C66.1696 161.94 67.4928 162.112 67.8348 162.067C70.437 161.61 73.5205 158.432 74.179 159.061C75.154 160.37 71.697 162.379 71.83 162.735C71.9566 163.091 74.2106 163.154 75.9708 163.237C77.541 163.307 80.8144 162.767 81.074 163.809C81.3336 164.858 77.6487 165.176 76.3824 165.271C75.116 165.366 73.8751 165.322 73.6598 165.576C73.4445 165.83 75.0147 165.856 76.6293 165.919C77.9083 165.97 81.4666 165.506 81.5362 166.58C81.5932 167.496 79.4722 167.833 76.7306 167.877C74.7805 167.909 73.6534 167.992 73.6408 168.227C73.6281 168.462 74.6855 168.602 75.8758 168.608C77.0725 168.614 78.8707 168.684 78.9276 169.314C78.9846 169.949 77.1865 170.146 75.5656 170.057C73.9447 169.968 70.0571 169.981 66.4355 168.443C66.4355 168.443 65.758 168.1 62.9278 167.915C62.9278 167.915 63.0101 163.593 64.8209 161.419L64.8273 161.425Z" fill="#FFA70B"/>
<path d="M64.5297 84.9272C60.832 81.4058 49.2896 80.1536 43.8888 86.2938C42.0273 88.4168 41.2295 91.1882 40.9256 93.6799C42.6985 94.824 43.281 97.0996 43.281 97.0996L40.8053 97.8115C40.875 99.0764 41.0206 99.8836 41.0206 99.8836C61.9527 93.4701 69.3163 96.2287 69.3163 96.2287C69.3163 96.2287 67.8854 88.1181 64.5297 84.9272V84.9272Z" fill="#E89207"/>
<path d="M41.2359 93.8705C41.2359 93.8705 39.6277 96.5084 39.9949 98.892L40.8053 97.8115L42.4389 97.3157L41.2359 93.8705V93.8705Z" fill="#212121"/>
<path d="M54.5258 96.2351C54.5258 96.2351 59.5974 99.7056 62.1174 100.386C67.0053 101.695 73.4445 101.307 74.4069 100.468C75.3693 99.6357 69.31 96.2287 69.31 96.2287C69.31 96.2287 66.5178 94.5062 54.5258 96.2351V96.2351Z" fill="#E89207"/>
<path d="M56.4949 94.8939L69.1137 95.2499C68.6199 92.9998 67.1636 87.4316 64.5297 84.9209C62.6112 83.0966 58.578 81.8762 54.3865 81.9906C54.8741 82.0033 61.3766 81.9906 62.7885 86.6752C64.5423 92.4785 56.4949 94.8876 56.4949 94.8876V94.8939Z" fill="#FFA70B"/>
<path d="M11.9904 172.212L19.2084 173.973C19.2084 173.973 16.1186 178.467 11.4459 179.789L11.9968 172.212H11.9904Z" fill="#474557"/>
<path d="M48.8274 173.337L45.9782 173.922C45.9782 173.922 47.8017 176.998 50.214 178.905L48.8274 173.331V173.337Z" fill="#3F3E4F"/>
<path d="M69.31 96.2224C69.31 96.2224 69.177 95.4787 68.9048 94.3536C57.565 92.2497 43.2746 97.0868 43.2746 97.0868L40.799 97.7987C40.8686 99.0636 41.0143 99.8709 41.0143 99.8709C61.9464 93.4574 69.31 96.216 69.31 96.216V96.2224Z" fill="#FFA70B"/>
<path d="M62.3073 99.623C60.4521 99.1272 57.2041 97.1059 55.6275 96.0762C55.2666 96.1207 54.9057 96.1715 54.5258 96.2287C54.5258 96.2287 59.5974 99.6993 62.1174 100.379C67.0053 101.689 73.4445 101.301 74.4069 100.462C74.5715 100.322 74.5335 100.106 74.3626 99.8518C72.8557 100.583 66.904 100.856 62.3073 99.623V99.623Z" fill="#E89207"/>
<path d="M11.218 185.796C11.0723 195.762 13.2631 212.46 12.4843 218.289C11.7055 224.111 3.81638 250.7 4 254.666C4.18361 258.632 5.32962 261.321 7.76094 262.249C7.96355 262.326 8.17882 262.395 8.41309 262.465C6.41865 261.366 4.57617 258.378 4.86109 254.495C5.36128 247.598 14.4851 225.986 14.9536 219.071C15.2258 215.104 11.7878 191.726 11.275 183.069C11.2496 183.946 11.2306 184.855 11.2116 185.796H11.218Z" fill="#474557"/>
<path d="M37.7662 168.112C35.9744 168.112 34.5181 169.466 34.5181 171.131C34.5181 172.797 35.9744 174.151 37.7662 174.151C39.558 174.151 41.0143 172.797 41.0143 171.131C41.0143 169.466 39.558 168.112 37.7662 168.112ZM37.7662 172.867C36.7405 172.867 35.9047 172.091 35.9047 171.138C35.9047 170.184 36.7405 169.409 37.7662 169.409C38.7919 169.409 39.6277 170.184 39.6277 171.138C39.6277 172.091 38.7919 172.867 37.7662 172.867Z" fill="#A5ADBC"/>
<path d="M54.5891 110.994C54.5891 110.994 57.47 112.304 61.7818 112.164C61.7818 112.164 60.3382 114.904 57.5776 114.408C55.1526 113.969 54.5891 111.001 54.5891 111.001V110.994Z" fill="#4B3C59"/>
<path d="M55.7351 111.795C55.7351 111.795 57.9322 112.634 60.9587 112.533C60.9587 112.533 60.0153 114.103 57.7992 113.798C55.9757 113.55 55.7415 111.795 55.7415 111.795H55.7351Z" fill="#FFF4E9"/>
</g>
<defs>
<linearGradient id="paint0_linear_8_1711" x1="275.421" y1="183.278" x2="259.894" y2="156.367" gradientUnits="userSpaceOnUse">
<stop stop-color="#FF9595"/>
<stop offset="0.13" stop-color="#FFA29C"/>
<stop offset="0.33" stop-color="#FFB1A4"/>
<stop offset="0.5" stop-color="#FFB7A7"/>
<stop offset="0.67" stop-color="#FFB0A3"/>
<stop offset="0.91" stop-color="#FF9D99"/>
<stop offset="1" stop-color="#FF9595"/>
</linearGradient>
<linearGradient id="paint1_linear_8_1711" x1="230.511" y1="264.232" x2="228.853" y2="254.039" gradientUnits="userSpaceOnUse">
<stop stop-color="#FFB7A7"/>
<stop offset="1" stop-color="#FF9595"/>
</linearGradient>
<linearGradient id="paint2_linear_8_1711" x1="240.104" y1="264.182" x2="238.432" y2="253.925" gradientUnits="userSpaceOnUse">
<stop stop-color="#FFB7A7"/>
<stop offset="1" stop-color="#FF9595"/>
</linearGradient>
<linearGradient id="paint3_linear_8_1711" x1="273.99" y1="183.806" x2="259.622" y2="158.893" gradientUnits="userSpaceOnUse">
<stop stop-color="#FF9595"/>
<stop offset="0.13" stop-color="#FFA29C"/>
<stop offset="0.33" stop-color="#FFB1A4"/>
<stop offset="0.5" stop-color="#FFB7A7"/>
<stop offset="0.67" stop-color="#FFB0A3"/>
<stop offset="0.91" stop-color="#FF9D99"/>
<stop offset="1" stop-color="#FF9595"/>
</linearGradient>
<linearGradient id="paint4_linear_8_1711" x1="240.104" y1="131.042" x2="240.104" y2="115.094" gradientUnits="userSpaceOnUse">
<stop stop-color="#FFB7A7"/>
<stop offset="1" stop-color="#FF9595"/>
</linearGradient>
<linearGradient id="paint5_linear_8_1711" x1="234.634" y1="121.758" x2="244.057" y2="91.2299" gradientUnits="userSpaceOnUse">
<stop stop-color="#FFB7A7"/>
<stop offset="1" stop-color="#FF9595"/>
</linearGradient>
<linearGradient id="paint6_linear_8_1711" x1="200.316" y1="127.839" x2="217.018" y2="158.848" gradientUnits="userSpaceOnUse">
<stop stop-color="#FFB7A7"/>
<stop offset="1" stop-color="#FF9595"/>
</linearGradient>
<linearGradient id="paint7_linear_8_1711" x1="277.776" y1="183.514" x2="258.75" y2="155.354" gradientUnits="userSpaceOnUse">
<stop stop-color="#FF9595"/>
<stop offset="0.13" stop-color="#FFA29C"/>
<stop offset="0.33" stop-color="#FFB1A4"/>
<stop offset="0.5" stop-color="#FFB7A7"/>
<stop offset="0.67" stop-color="#FFB0A3"/>
<stop offset="0.91" stop-color="#FF9D99"/>
<stop offset="1" stop-color="#FF9595"/>
</linearGradient>
<linearGradient id="paint8_linear_8_1711" x1="51.8754" y1="118.338" x2="60.0241" y2="77.0677" gradientUnits="userSpaceOnUse">
<stop stop-color="#FFB7A7"/>
<stop offset="1" stop-color="#FF9595"/>
</linearGradient>
<linearGradient id="paint9_linear_8_1711" x1="51.512" y1="171.487" x2="44.6662" y2="126.633" gradientUnits="userSpaceOnUse">
<stop stop-color="#FFB7A7"/>
<stop offset="1" stop-color="#FF9595"/>
</linearGradient>
<clipPath id="clip0_8_1711">
<rect width="279" height="213" fill="white" transform="translate(4 62)"/>
</clipPath>
</defs>
</svg>
